/* XPM */
static char *oie_1120913Ws68IDB1681236583[] = {
/* columns rows colors chars-per-pixel */
"32 32 131 2 ",
"   c None",
".  c black",
"X  c #050202",
"o  c #050302",
"O  c #070303",
"+  c #070503",
"@  c #080403",
"#  c #090605",
"$  c #0A0705",
"%  c #0B0705",
"&  c #0C0806",
"*  c #0E0907",
"=  c #0E0A07",
"-  c #0F0A07",
";  c #100B08",
":  c #130A08",
">  c #110C08",
",  c #130D09",
"<  c #140D09",
"1  c #140E09",
"2  c #150F0A",
"3  c #190D0A",
"4  c #1D0C08",
"5  c #1D0D0A",
"6  c #1E0F0C",
"7  c #1F0F0C",
"8  c #16100B",
"9  c #18110B",
"0  c #1B120C",
"q  c #1F100C",
"w  c #1D130D",
"e  c #1E130E",
"r  c #1D150E",
"t  c #1E150E",
"y  c #1E160E",
"u  c #20100C",
"i  c #22110D",
"p  c #21120D",
"a  c #241911",
"s  c #251912",
"d  c #261912",
"f  c #2E1B14",
"g  c #2B1D14",
"h  c #2C1D15",
"j  c #2F1C14",
"k  c #2E1F15",
"l  c #301D15",
"z  c #331F16",
"x  c #341F15",
"c  c #342016",
"v  c #352016",
"b  c #342017",
"n  c #352117",
"m  c #332218",
"M  c #332318",
"N  c #362118",
"B  c #342319",
"V  c #352319",
"C  c #362218",
"Z  c #372218",
"A  c #37251A",
"S  c #38251A",
"D  c #38251B",
"F  c #3A271B",
"G  c #3A271C",
"H  c #3B271C",
"J  c #3B281C",
"K  c #3C281C",
"L  c #3D291C",
"P  c #3C291D",
"I  c #3D2A1C",
"U  c #3E2A1C",
"Y  c #3E2A1D",
"T  c #3F2A1D",
"R  c #3D302F",
"E  c #312930",
"W  c #412D1F",
"Q  c #432E20",
"!  c #442E20",
"~  c #442F21",
"^  c #452F21",
"/  c #443020",
"(  c #453021",
")  c #463022",
"_  c #493323",
"`  c #4B3222",
"'  c #4A3223",
"]  c #4B3223",
"[  c #4A3323",
"{  c #4B3323",
"}  c #4C3323",
"|  c #4B3423",
" . c #4C3424",
".. c #4D3524",
"X. c #4D3625",
"o. c #503726",
"O. c #543A28",
"+. c #553A28",
"@. c #563D29",
"#. c #543C2E",
"$. c #593D2A",
"%. c #5A3E2A",
"&. c #5B3E2B",
"*. c #5B412B",
"=. c #5B412C",
"-. c #5C412C",
";. c #5D422D",
":. c #5F432D",
">. c #60422D",
",. c #60432D",
"<. c #61432D",
"1. c #61432E",
"2. c #62442E",
"3. c #63442E",
"4. c #63452F",
"5. c #64452F",
"6. c #65462F",
"7. c #654730",
"8. c #664831",
"9. c #674931",
"0. c #674932",
"q. c #684932",
"w. c #684A32",
"e. c #694A33",
"r. c #6C4C33",
"t. c #785539",
"y. c #79563A",
"u. c #7A573A",
"i. c #4F4F61",
"p. c #585F7A",
"a. c #6B7BA1",
/* pixels */
"a.p.E 4 4 6 6 6 6 6 6 6 6 6 7 6 6 6 6 6 7 6 6 6 6 6 6 6 4 E p.a.",
"p.i.R x b C b b C z z C z C z z C C C z z z C C C z z z x R i.p.",
"E R #.<.<.:.<.<.:.<.<.:.<.:.>.>.&.<.<.<.<.>.&.<.<.<.<.<.<.#.R E ",
"4 x <.u.u.t.t.t.t.t.t.t.u.t.t.t.u.t.t.t.t.u.y.t.t.t.t.t.y.<.x 4 ",
"4 x <.u.u.u.t.t.t.t.t.t.t.u.t.u.t.t.y.u.t.t.y.u.t.t.t.u.y.<.x 6 ",
"6 z $.r.7.7.7.7.7.0.0.7.7.7.7.0.7.7.7.q.7.7.8.8.0.7.0.w.r.&.z 6 ",
"u f ] +._ Q Q Q Q ) ) ! ! ! ! ) ! ^ ^ ^ ^ ^ ^ ^ Q ! Q [ +.] f 6 ",
"q j ] X.P B A C h d d d d d d d d d d d d d d d d d d C ] ] l 7 ",
"6 z &.:.Q H Q H q $ $ & & & & & & & & & & & & & & $ $ a @.&.z 6 ",
"6 C 7.q.! H _ H , . . . . . . . . . . . . . . . . . . r =.7.C 6 ",
"6 z <.7.! H ] H , . . . . . . . . . . . . . . . . . . r &.7.C 6 ",
"6 z 7.0.! H _ W < . . . . . . . . . . . . . . . . . . r =.3.C 6 ",
"6 C &.q.^ H _ H < . . . . . . . . . . . . . . . . . . r =.2.C 6 ",
"6 C 7.8.~ H _ Y < . . . . . . . . . . . . . . . . . . r *.2.C 6 ",
"6 Z 7.7.~ H _ H < . . . . . . . . . . . . . . . . . . r -.<.C 6 ",
"6 z 7.7.~ H ' H < . . . . . . . . . . . . . . . . . . r -.5.C 6 ",
"6 C :.0.! H ] H < . . . . . . . . . . . . . . . . . . r *.5.b q ",
"6 C <.0.! H ] Y < . . . . . . . . . . . . . . . . . . r *.2.C 6 ",
"6 z 7.7.) H _ H < . . . . . . . . . . . . . . . . . . r -.<.C 6 ",
"6 C :.0.Q H _ Y < . . . . . . . . . . . . . . . . . . r -.5.C 6 ",
"6 z 7.q./ H _ H < . . . . . . . . . . . . . . . . . . r *.5.b q ",
"6 C 7.7.Q H _ Y < . . . . . . . . . . . . . . . . . . r *.2.A 4 ",
"6 z >.7./ H ] I < . . . . . . . . . . . . . . . . . . r -.<.C 6 ",
"6 z 7.q.Q F ] Y < . . . . . . . . . . . . . . . . . . r -.5.C 6 ",
"6 z 7.7.Q H _ H < . . . . . . . . . . . . . . . . . . r -.5.b q ",
"7 Z 7.q.! H _ Q < . . . . . . . . . . . . . . . . . . r -.5.b q ",
"7 C 7.q.) P ] W 8 . . . . . . . . . . . . . . . . . . r :.5.Z u ",
"7 l _ X.B j C f & . . . . . . . . . . . . . . . . . . 8 / ] z u ",
"u u q 9 = = , = X . . . . . . . . . . . . . . . . . . + 8 q p u ",
"3 ; O . . . . . . . . . . . . . . . . . . . . . . . . . . X , 3 ",
"$ O                                                         O $ ",
". .                                                         . . "
};
