/* XPM */
static char *oie_TGj68GvqUQEC1681309680[] = {
/* columns rows colors chars-per-pixel */
"20 20 10 1 ",
"  c None",
". c black",
"X c #0C0E19",
"o c #1D235D",
"O c #9E2E46",
"+ c #33418A",
"@ c #425B9E",
"# c #4D8AB3",
"$ c #65B1B8",
"% c white",
/* pixels */
"                    ",
"                    ",
"                    ",
"                    ",
"                    ",
"                    ",
"                    ",
"                    ",
"                    ",
"     oooooooooo     ",
"   oo##$$$$$$$#o    ",
"  o@##$$$$$$$$$#o   ",
"  o@##$$$%.$$.$$#o  ",
" o@@##$++..$$.+$#@o ",
" o@@##$$++++++$$#@o ",
"Xo@@@##$$OO++$$#@@oX",
"XXo@@@@########@@oXX",
"XXXXX@@@@@@@@@@@oXXX",
" XXXXXXXXXXXXXXXXXX ",
"                    "
};
