/* XPM */
static char *oie_5zcTCZk2gZcD1681309679[] = {
/* columns rows colors chars-per-pixel */
"20 20 10 1 ",
"  c None",
". c black",
"X c #0C0E19",
"o c #1D235D",
"O c #9E2E46",
"+ c #33418A",
"@ c #425B9E",
"# c #4D8AB3",
"$ c #65B1B8",
"% c white",
/* pixels */
"                    ",
"                    ",
"                    ",
"                    ",
"                    ",
"                    ",
"                    ",
"                    ",
"       oooooooo     ",
"     oo##$$$$$#o    ",
"    o#$$$$$$$$$#o   ",
"   o#$$$$%.$$.$$@o  ",
"  o@#$$$$..$$.$$#o  ",
"  o@#$$++$$$$$$+#o  ",
"  o@#$$$+++++++$#o  ",
"  o@@#$$$OO++$$#@o  ",
"  Xo@@#########@@o  ",
"  XXX@@@@@@@@@@@oX  ",
"   XXXXXXXXXXXXXX   ",
"                    "
};
