/* XPM */
static char *oie_11203349MUgnYXx1681236424[] = {
/* columns rows colors chars-per-pixel */
"32 28 227 2 ",
"   c None",
".  c #111111",
"X  c #151513",
"o  c gray8",
"O  c #151514",
"+  c #151515",
"@  c #161615",
"#  c #171715",
"$  c #161616",
"%  c gray9",
"&  c #1A1715",
"*  c #181717",
"=  c #1C1714",
"-  c #1B1A17",
";  c #1B1B17",
":  c #1D1815",
">  c #1C1B17",
",  c #181818",
"<  c #1D1D1E",
"1  c #1D1E1E",
"2  c #1E1E1E",
"3  c #211813",
"4  c #261D17",
"5  c #2A1F17",
"6  c #291F18",
"7  c #21211F",
"8  c #3F261A",
"9  c #202121",
"0  c #232321",
"q  c #222222",
"w  c #252424",
"e  c #272626",
"r  c #282727",
"t  c #2B2A2B",
"y  c #2C2B2B",
"u  c #2E2D2D",
"i  c #312B29",
"p  c #332E2D",
"a  c #302F2F",
"s  c #313030",
"d  c #333131",
"f  c #323132",
"g  c #343333",
"h  c #343334",
"j  c #363434",
"k  c #373535",
"l  c #373636",
"z  c #393838",
"x  c #3B3A3A",
"c  c #3C3A3A",
"v  c #3C3B3B",
"b  c #3D3C3C",
"n  c #6F341C",
"m  c #79361C",
"M  c #793B1F",
"N  c #7D3A1E",
"B  c #414040",
"V  c #454343",
"C  c #454344",
"Z  c #454444",
"A  c #464445",
"S  c #4C4A4A",
"D  c #4C4B4B",
"F  c #4D4B4B",
"G  c #4E4C4C",
"H  c #4F4D4D",
"J  c #504E4E",
"K  c #514F4F",
"L  c #525050",
"P  c #535151",
"I  c #555252",
"U  c #555353",
"Y  c #575454",
"T  c #585555",
"R  c #5C5959",
"E  c #5D5A5A",
"W  c #646061",
"Q  c #656262",
"!  c #666263",
"~  c #696666",
"^  c #6A6767",
"/  c #6B6767",
"(  c #767272",
")  c #8A3318",
"_  c #804226",
"`  c #904121",
"'  c #A74923",
"]  c #B74F25",
"[  c #B64F26",
"{  c #B84820",
"}  c #BB4B21",
"|  c #B94C23",
" . c #B94F25",
".. c #BA4F24",
"X. c #BA4F25",
"o. c #BD4E24",
"O. c #B85025",
"+. c #BB5125",
"@. c #B85226",
"#. c #BB5327",
"$. c #BD5025",
"%. c #BF5025",
"&. c #BC5327",
"*. c #BA5427",
"=. c #BC5427",
"-. c #BF5427",
";. c #BA5528",
":. c #B95629",
">. c #BA5629",
",. c #BB5629",
"<. c #B8542B",
"1. c #BC5528",
"2. c #BF5428",
"3. c #BC5629",
"4. c #BC5829",
"5. c #BC5A2B",
"6. c #BA5A2F",
"7. c #BF5C2C",
"8. c #BF5E2D",
"9. c #BE643A",
"0. c #D5471A",
"q. c #D6471A",
"w. c #D1491D",
"e. c #D64B1D",
"r. c #D44B1E",
"t. c #DC481A",
"y. c #DE491B",
"u. c #DE4A1B",
"i. c #DD4A1C",
"p. c #DC4B1C",
"a. c #DE4A1C",
"s. c #DF501F",
"d. c #E0491B",
"f. c #E2491A",
"g. c #E3491A",
"h. c #E2491B",
"j. c #E14B1B",
"k. c #E34A1B",
"l. c #E4491A",
"z. c #E2501E",
"x. c #C44B20",
"c. c #C44D22",
"v. c #C94D21",
"b. c #CC4C20",
"n. c #C05125",
"m. c #C55425",
"M. c #CB5024",
"N. c #CD5726",
"B. c #C0582A",
"V. c #C95C2D",
"C. c #D75221",
"Z. c #DF5523",
"A. c #DD5726",
"S. c #E35523",
"D. c #E25324",
"F. c #E05E27",
"G. c #E05F2B",
"H. c #C26936",
"J. c #C67036",
"K. c #C5773D",
"L. c #CA783B",
"P. c #DE7738",
"I. c #E26635",
"U. c #E16636",
"Y. c #8E7E47",
"T. c #837E7E",
"R. c #847E7E",
"E. c #96854A",
"W. c #988A51",
"Q. c #8E886E",
"!. c #979177",
"~. c #D2974D",
"^. c #D19A4F",
"/. c #D3A256",
"(. c #D5A95A",
"). c #DAAF5A",
"_. c #DEB35C",
"`. c #D9B55F",
"'. c #DEB75F",
"]. c #E1A453",
"[. c #E0B55E",
"{. c #CD8E64",
"}. c #DBBB62",
"|. c #DBBC62",
" X c #DDBF63",
".X c #DEBD65",
"XX c #DDC064",
"oX c #DFC064",
"OX c #DEC268",
"+X c #DEC66C",
"@X c #E0C165",
"#X c #E0CA6B",
"$X c #E0CB6E",
"%X c #E5CA6D",
"&X c #E0CB70",
"*X c #E6D071",
"=X c #878282",
"-X c #888282",
";X c #898484",
":X c #8B8686",
">X c #8C8787",
",X c #989292",
"<X c #A19B9B",
"1X c #A39C9C",
"2X c #A59E9E",
"3X c #A69F9F",
"4X c #ABA4A4",
"5X c #DEB48B",
"6X c #DBB68D",
"7X c #D9B68E",
"8X c #DDBC8F",
"9X c #DED38D",
"0X c #DED38F",
"qX c #DBCB97",
"wX c #DCCC97",
"eX c #DDCD97",
"rX c #DED092",
"tX c #E3CC80",
"yX c #DBCAA2",
"uX c #DCCBA1",
"iX c #DDCCA0",
"pX c #DACCA4",
"aX c #DCD1A6",
"sX c #DCD1AA",
"dX c #DCD4AA",
"fX c #E3D9AC",
"gX c #E3DDB0",
/* pixels */
"                                                                ",
"                          l.      h.                            ",
"                                  l.                            ",
"                                                                ",
"                          l.                                    ",
"                                                                ",
"                                                                ",
"                        l.  O.P.O.                              ",
"                      h.h.F.=.^.m.J.                            ",
"                      h.z._.1.&.s.'.S.                          ",
"                      h.N.oXC.} h.L.&.                          ",
"                      h.4.@XS.{.M.{  .a.                        ",
"                      r.&.~.D.yX<.] } u.l.                      ",
"                    a. .O.8.G.6X9.&.7.p.u.                      ",
"                    h. .>.`.[.U.6XA.).&.&.                      ",
"                    c.*./.rX#X].yXV. X>.[                       ",
"                    v.1.$XdXrXrXpX6.|.>.b.                      ",
"            @ @ & N d.1.(.wX5XsXqXK.oX1.r.` > & @               ",
"          @ > > > 6 q.O.7..XU.wX&X+X|.>.' 6 > > - @             ",
"        @ . @ , > 4 q.O.>.oX8XsX&XwXH.w.8 > > X @ e @           ",
"          @ k @ X 3 t.n.5.%XgXfX*XtX&.x.= 7 w v ( g             ",
"          , z u y i ) m M Y.Q.!.W.E._ n p W W I T.k             ",
"            @ K K K 9 < 1 1 1 f C A A g I 1X3XW a               ",
"            & D G K D D D D G P 3X4X4X3XT R R <Xk               ",
"              9 e G L K L L K P / / ~ / T ,Xv G                 ",
"                  u g K L L P P L :X>X=XV /                     ",
"                  . o v b b b v B T.=X:Xg r                     ",
"                      o $ @ @ @ o @ & u                         "
};
