/* XPM */
static char *oie_1120355J3aPai011681236425[] = {
/* columns rows colors chars-per-pixel */
"32 28 231 2 ",
"   c None",
".  c #111111",
"X  c #151513",
"o  c gray8",
"O  c #151514",
"+  c #151515",
"@  c #161615",
"#  c #171715",
"$  c #161616",
"%  c gray9",
"&  c #191715",
"*  c #181717",
"=  c #1C1714",
"-  c #1B1A17",
";  c #1B1B17",
":  c #1D1815",
">  c #1C1B17",
",  c #181818",
"<  c #1D1D1E",
"1  c #1D1E1E",
"2  c #1E1E1E",
"3  c #211813",
"4  c #261D17",
"5  c #2A1F17",
"6  c #291F18",
"7  c #21211F",
"8  c #3F261A",
"9  c #202121",
"0  c #232321",
"q  c #222222",
"w  c #252424",
"e  c #272626",
"r  c #282727",
"t  c #2B2A2B",
"y  c #2C2B2B",
"u  c #2E2D2D",
"i  c #312B29",
"p  c #332E2D",
"a  c #302F2F",
"s  c #313030",
"d  c #333131",
"f  c #323132",
"g  c #343333",
"h  c #343334",
"j  c #363434",
"k  c #373535",
"l  c #373636",
"z  c #393838",
"x  c #3B3A3A",
"c  c #3C3A3A",
"v  c #3C3B3B",
"b  c #3D3C3C",
"n  c #6F341C",
"m  c #79361C",
"M  c #793B1F",
"N  c #7C391E",
"B  c #414040",
"V  c #454343",
"C  c #454344",
"Z  c #454444",
"A  c #464445",
"S  c #4C4A4A",
"D  c #4C4B4B",
"F  c #4D4B4B",
"G  c #4E4C4C",
"H  c #4F4D4D",
"J  c #504E4E",
"K  c #514F4F",
"L  c #525050",
"P  c #535151",
"I  c #555252",
"U  c #555353",
"Y  c #575454",
"T  c #585555",
"R  c #5C5959",
"E  c #5D5A5A",
"W  c #646061",
"Q  c #656262",
"!  c #666263",
"~  c #696666",
"^  c #6A6767",
"/  c #6B6767",
"(  c #767272",
")  c #8A3318",
"_  c #804226",
"`  c #904121",
"'  c #A74923",
"]  c #B64F26",
"[  c #BB4B21",
"{  c #BC4E23",
"}  c #B94F25",
"|  c #BA4F24",
" . c #BA4F25",
".. c #BD4E24",
"X. c #BC4F24",
"o. c #BA5025",
"O. c #B85026",
"+. c #BB5126",
"@. c #BB5226",
"#. c #BB5327",
"$. c #BC5125",
"%. c #BC5327",
"&. c #BC5427",
"*. c #BF5427",
"=. c #BB5428",
"-. c #BA5528",
";. c #B95629",
":. c #BB5629",
">. c #BC5528",
",. c #BF5428",
"<. c #BC5628",
"1. c #BC5629",
"2. c #BC5A2B",
"3. c #BA5A2F",
"4. c #BF5C2C",
"5. c #BE6433",
"6. c #CE4C1F",
"7. c #D5471A",
"8. c #D6471A",
"9. c #D1491D",
"0. c #D54A1D",
"q. c #D64B1D",
"w. c #D44B1E",
"e. c #DC481A",
"r. c #DE491B",
"t. c #DE4A1B",
"y. c #DF4A1B",
"u. c #DD4A1C",
"i. c #DC4B1C",
"p. c #DE4A1C",
"a. c #E1491A",
"s. c #E0491B",
"d. c #E1491B",
"f. c #E2491A",
"g. c #E3491A",
"h. c #E2491B",
"j. c #E4491A",
"k. c #E0491C",
"l. c #E2501F",
"z. c #C34B20",
"x. c #C44B20",
"c. c #C54D22",
"v. c #CA4C20",
"b. c #CA4D21",
"n. c #CC4C20",
"m. c #C05125",
"M. c #C15226",
"N. c #CC5426",
"B. c #C05729",
"V. c #C25628",
"C. c #C0582A",
"Z. c #C95C2D",
"A. c #DE5120",
"S. c #DF5623",
"D. c #DD5727",
"F. c #E25121",
"G. c #E35626",
"H. c #C26936",
"J. c #C5773D",
"K. c #DC7537",
"L. c #E2652E",
"P. c #E2662F",
"I. c #E26635",
"U. c #8E7E47",
"Y. c #837E7E",
"T. c #847E7E",
"R. c #C67D40",
"E. c #96854A",
"W. c #988A51",
"Q. c #8E886E",
"!. c #979177",
"~. c #CD8A44",
"^. c #D0974D",
"/. c #D09C51",
"(. c #D5A95A",
"). c #DAAF5A",
"_. c #D9B65F",
"`. c #E1A454",
"'. c #E0B55E",
"]. c #E0B65E",
"[. c #CD8E66",
"{. c #DBBB62",
"}. c #DBBC62",
"|. c #DFBD62",
" X c #DDBF63",
".X c #DEBD65",
"XX c #E0BE63",
"oX c #DDC064",
"OX c #DEC064",
"+X c #DEC268",
"@X c #DEC66A",
"#X c #DDC26C",
"$X c #DEC66C",
"%X c #DFC76C",
"&X c #DEC277",
"*X c #DFC971",
"=X c #E0CA6B",
"-X c #E5CA6D",
";X c #E0CB70",
":X c #E6D071",
">X c #878282",
",X c #888282",
"<X c #898484",
"1X c #8B8686",
"2X c #8C8787",
"3X c #989292",
"4X c #A19B9B",
"5X c #A39C9C",
"6X c #A59E9E",
"7X c #A69F9F",
"8X c #ABA4A4",
"9X c #DEB48B",
"0X c #DDBC8F",
"qX c #DED38D",
"wX c #DED38F",
"eX c #DBC595",
"rX c #DDC495",
"tX c #DDCA90",
"yX c #DBCB97",
"uX c #DCCC97",
"iX c #DDCD97",
"pX c #DBC99F",
"aX c #DED091",
"sX c #E3CC80",
"dX c #DDCCA0",
"fX c #DACCA4",
"gX c #DCD1A6",
"hX c #DCD1AA",
"jX c #DCD3AA",
"kX c #E3D9AC",
"lX c #E3DDB0",
/* pixels */
"                              h.                                ",
"                                  j.                            ",
"                                  j.                            ",
"                                  h.                            ",
"                                                                ",
"                                                                ",
"                          k.{   |                               ",
"                        h.h.%.K.O.                              ",
"                      h.h.h.o.^.M.                              ",
"                      h.h.y.$.%.A.XXS.                          ",
"                    h.h.v.z.w.[ l.|.V.h.                        ",
"                    h.h.%.~.F.[.N.OX;.h.                        ",
"                  | u.w.>.&XG.tXR./.o.h.j.                      ",
"                    u.o.5.eXP.].#XB.4.i.u.                      ",
"                  u.h.>._.;X].P.eXD._.M...                      ",
"                  h.c.;.@XtX=X`.pXZ.|.-.]                       ",
"                  n.v.>.=XjXaXwXfX3.{.;.6.                      ",
"            O O : N u.%.(.uX9XhXyXJ.oX>.i.` - & O               ",
"          O > > : 7 7.| 4..XI.dX;X$X{.&.' 7 - - - O             ",
"        O O O > - 5 7.| ;.+X0XfX;XuXH.9.8 > - O O r O           ",
"          O l O X 3 e.m.4.-XlXkX:XsX,.x.= 7 0 v ( d             ",
"          , z u y i ) m M U.Q.!.W.E._ n p W Q I T.l             ",
"            O J K J 7 2 < < < h Z Z Z h I 5X7XQ s               ",
"            : S J K S S D D D P 7X8X8X7XY R R 4Xj               ",
"              q w K P K P K K P ~ ~ ~ ~ T 3Xv G                 ",
"                  u s K P P P P I 1X2X>XV /                     ",
"                  . O v b b b b B Y.,X1Xd t                     ",
"                      O O O $ O O O * u                         "
};
