/* XPM */
static char *oie_1120247EQLwJhLE1681236425[] = {
/* columns rows colors chars-per-pixel */
"32 28 222 2 ",
"   c None",
".  c #111111",
"X  c #151513",
"o  c gray8",
"O  c #151514",
"+  c #151515",
"@  c #161615",
"#  c #171715",
"$  c #161616",
"%  c gray9",
"&  c #181514",
"*  c #181717",
"=  c #1C1714",
"-  c #171816",
";  c #1B1A17",
":  c #1D1815",
">  c #1C1B17",
",  c #1D1B17",
"<  c #1E1B17",
"1  c #181818",
"2  c #1D1D1E",
"3  c #1D1E1E",
"4  c #1E1E1E",
"5  c #211813",
"6  c #241B17",
"7  c #271D17",
"8  c #271E17",
"9  c #241E18",
"0  c #21211F",
"q  c #3F261A",
"w  c #202121",
"e  c #232321",
"r  c #222222",
"t  c #252424",
"y  c #272626",
"u  c #282727",
"i  c #2B2A2B",
"p  c #2C2B2B",
"a  c #2E2D2D",
"s  c #312B29",
"d  c #332E2D",
"f  c #302F2F",
"g  c #313030",
"h  c #333131",
"j  c #323132",
"k  c #343333",
"l  c #343334",
"z  c #363434",
"x  c #373535",
"c  c #373636",
"v  c #393838",
"b  c #3B3A3A",
"n  c #3C3A3A",
"m  c #3C3B3B",
"M  c #3D3C3C",
"N  c #422116",
"B  c #502818",
"V  c #702C17",
"C  c #6F341C",
"Z  c #79361C",
"A  c #793B1F",
"S  c #414040",
"D  c #454343",
"F  c #454444",
"G  c #464445",
"H  c #4C4A4A",
"J  c #4C4B4B",
"K  c #4D4B4B",
"L  c #4E4C4C",
"P  c #4F4D4D",
"I  c #504E4E",
"U  c #514F4F",
"Y  c #525050",
"T  c #535151",
"R  c #555252",
"E  c #555353",
"W  c #575454",
"Q  c #585555",
"!  c #5C5959",
"~  c #5D5A5A",
"^  c #646061",
"/  c #656262",
"(  c #666263",
")  c #696666",
"_  c #6A6767",
"`  c #6B6767",
"'  c #767272",
"]  c #8A3318",
"[  c #B7471E",
"{  c #804226",
"}  c #A74823",
"|  c #B84F25",
" . c #B94F25",
".. c #BA4F24",
"X. c #BA4F25",
"o. c #B94F26",
"O. c #BC4F24",
"+. c #B45127",
"@. c #B65026",
"#. c #B45227",
"$. c #B85025",
"%. c #BB5126",
"&. c #B85226",
"*. c #BB5327",
"=. c #BC5025",
"-. c #BF5025",
";. c #BC5427",
":. c #BF5427",
">. c #B15328",
",. c #B35429",
"<. c #BA5528",
"1. c #BA5629",
"2. c #BC5428",
"3. c #BF5428",
"4. c #BD5729",
"5. c #BC5A2B",
"6. c #BF6431",
"7. c #CF451A",
"8. c #CC4C1F",
"9. c #D7471A",
"0. c #D1491D",
"q. c #D34A1D",
"w. c #D44B1E",
"e. c #DC481A",
"r. c #DC4B1C",
"t. c #DF4C1D",
"y. c #DF511F",
"u. c #E24619",
"i. c #E0491B",
"p. c #E1491B",
"a. c #E2491A",
"s. c #E3491A",
"d. c #E2491B",
"f. c #E2501F",
"g. c #C44B20",
"h. c #C34D22",
"j. c #C64D21",
"k. c #CA4F24",
"l. c #C05125",
"z. c #C55425",
"x. c #C75629",
"c. c #C0582A",
"v. c #D95020",
"b. c #DF5523",
"n. c #E45020",
"m. c #C06232",
"M. c #C16430",
"N. c #C26A37",
"B. c #C46B34",
"V. c #DF7E3C",
"C. c #E16636",
"Z. c #E06B30",
"A. c #E1793A",
"S. c #8E7E47",
"D. c #837E7E",
"F. c #847E7E",
"G. c #C57B40",
"H. c #C2784E",
"J. c #96864D",
"K. c #8E886E",
"L. c #958F75",
"P. c #979179",
"I. c #CB8C4B",
"U. c #DE8741",
"Y. c #D0984E",
"T. c #D39B4F",
"R. c #D29D51",
"E. c #E18C43",
"W. c #D7A050",
"Q. c #D3A256",
"!. c #D5A95A",
"~. c #D8AC59",
"^. c #DAB05B",
"/. c #DCB25C",
"(. c #D9B65F",
"). c #DBB75F",
"_. c #DDC265",
"`. c #DEC366",
"'. c #DEC369",
"]. c #DEC469",
"[. c #DFC973",
"{. c #DFCB74",
"}. c #E1C76A",
"|. c #E0CA6A",
" X c #E0CA6B",
".X c #E0CA6C",
"XX c #E0CA6D",
"oX c #E0CA6E",
"OX c #E0CB6E",
"+X c #E5CA6D",
"@X c #878282",
"#X c #888282",
"$X c #898484",
"%X c #8B8686",
"&X c #8C8787",
"*X c #989292",
"=X c #A19B9B",
"-X c #A39C9C",
";X c #A59E9E",
":X c #A69F9F",
">X c #ABA4A4",
",X c #DBBC90",
"<X c #DEC484",
"1X c #DCC68E",
"2X c #DECE8A",
"3X c #DECF8C",
"4X c #DDCB9A",
"5X c #DBCC9A",
"6X c #DDCF98",
"7X c #DED092",
"8X c #DDD199",
"9X c #DDD19D",
"0X c #E2CC84",
"qX c #DBCBA1",
"wX c #DBCFA5",
"eX c #DDD1A0",
"rX c #DCD2A5",
"tX c #DCD3AA",
"yX c #DCD3AB",
"uX c #E2D9AF",
"iX c #E3DAAE",
"pX c #E2D9B0",
/* pixels */
"                              s.                                ",
"                              d.                                ",
"                                                                ",
"                                                                ",
"                                                                ",
"                                                                ",
"                            ~.                                  ",
"                        s.  T.V.&.                              ",
"                      d.a.d.%.Y.z.M.t.                          ",
"                      d.d.d.%.;.y./.b.                          ",
"                      d.8.d.v.W.f.B.O.                          ",
"                      d.4.E.n.<Xk.[ *.h.                        ",
"                      w.*.R.A.1XG.H. .j.d.                      ",
"                       .*.6.`.|.[.,Xm.r.d.                      ",
"                       .<.(.].OX4XC.^.;.                        ",
"                  & N +.Q.7X].OXqXx.`.,.6 O                     ",
"                  @ - +.[.tX7X0XwXI.U.@.V :                     ",
"            O - O , B +.!.8X9XyX8X}.Z.O.9.0 # # O               ",
"          O 1 , , 6 0...5.`.{.rX{.oX).2.} 0 ; ; , O             ",
"        o O O < 5 0 9.*.&.].9XyXeX5XN.0.N < ; O O u O           ",
"          O c O @ 5 e.l.4.+XpXpXuX0X3.g.= 0 e n ' k             ",
"          1 v a p s ] Z A S.K.P.L.J.{ C d ^ / R F.c             ",
"            ; J U I 0 3 2 2 2 l D G G k R -X:X/ d               ",
"            - H I U J J J J J T :X>X>X:XW ! ! =Xz               ",
"              r t U T U T U U T ) ) ` ) Q *Xm L                 ",
"                  a g U T T T T T %X&X@XD `                     ",
"                  . O b M m M m S D.$X%Xl u                     ",
"                      $ $ O $ $ O O & a                         "
};
