/* XPM */
static char *_97e023df7024c5fe6d16171345aa519LwGY0GgverWZVeAU[] = {
/* columns rows colors chars-per-pixel */
"44 44 183 2 ",
"   c #0C0906",
".  c #0D0B0A",
"X  c #120E0A",
"o  c #16110C",
"O  c #1C160F",
"+  c #0D0E12",
"@  c #0F1014",
"#  c #141414",
"$  c #1A1613",
"%  c #161916",
"&  c #1A1916",
"*  c #14161A",
"=  c #17181D",
"-  c #1A1B1D",
";  c #23160E",
":  c #251A0D",
">  c #2A1E0E",
",  c #34190E",
"<  c #251A13",
"1  c #261B15",
"2  c #371E14",
"3  c #3B2116",
"4  c #35231C",
"5  c #171A20",
"6  c #1C1E26",
"7  c #1F2026",
"8  c #222224",
"9  c #2B2226",
"0  c #222429",
"q  c #27292E",
"w  c #2A2B2C",
"e  c #3B2625",
"r  c #272930",
"t  c #2B2D35",
"y  c #312F30",
"u  c #2E3037",
"i  c #2E3139",
"p  c #353434",
"a  c #383737",
"s  c #31343D",
"d  c #3B3739",
"f  c #34383F",
"g  c #3C3B3B",
"h  c #421F11",
"j  c #442B0F",
"k  c #482416",
"l  c #472F11",
"z  c #492F10",
"x  c #512311",
"c  c #582915",
"v  c #4B3214",
"b  c #513615",
"n  c #553916",
"m  c #593B17",
"M  c #5D3E18",
"N  c #622712",
"B  c #6C2B14",
"V  c #64321D",
"C  c #452B26",
"Z  c #502B24",
"A  c #56372C",
"S  c #4C3736",
"D  c #483739",
"F  c #573733",
"G  c #6F3021",
"H  c #7B3D2F",
"J  c #653C36",
"K  c #604019",
"L  c #474434",
"P  c #585138",
"I  c #76412F",
"U  c #363941",
"Y  c #383B45",
"T  c #393C45",
"R  c #3D414A",
"E  c #434242",
"W  c #484545",
"Q  c #41444E",
"!  c #4F4D4D",
"~  c #514F4F",
"^  c #585447",
"/  c #434751",
"(  c #464A55",
")  c #4C4A52",
"_  c #545252",
"`  c #595757",
"'  c #5D5B5B",
"]  c #784B40",
"[  c #625F5F",
"{  c #676768",
"}  c #6D6A6D",
"|  c #797575",
" . c #7A7575",
".. c #893418",
"X. c #983919",
"o. c #AC3C1A",
"O. c #B53F1B",
"+. c #B83E18",
"@. c #833621",
"#. c #923F29",
"$. c #B6431D",
"%. c #974424",
"&. c #844A3C",
"*. c #8D4B39",
"=. c #984A34",
"-. c #91533A",
";. c #AD4322",
":. c #AE4A25",
">. c #AF492D",
",. c #B54C23",
"<. c #BB4C23",
"1. c #B54728",
"2. c #AA502C",
"3. c #BB5126",
"4. c #BB5729",
"5. c #BC592B",
"6. c #A64930",
"7. c #A25F33",
"8. c #BA5B30",
"9. c #886039",
"0. c #A76537",
"q. c #BA6B37",
"w. c #BA753C",
"e. c #C5451D",
"r. c #CC461D",
"t. c #CD491E",
"y. c #D9471B",
"u. c #D5491D",
"i. c #DB4A1C",
"p. c #E24A1B",
"a. c #C24C22",
"s. c #C65628",
"d. c #E35424",
"f. c #D06930",
"g. c #E3682E",
"h. c #E26E30",
"j. c #836F48",
"k. c #837D7D",
"l. c #C26F43",
"z. c #C97851",
"x. c #E16E40",
"c. c #C98A45",
"v. c #CD944C",
"b. c #D6974B",
"n. c #D09D5A",
"m. c #E19F4F",
"M. c #D5A857",
"N. c #D8B35C",
"B. c #E1B35C",
"V. c #DA956A",
"C. c #E09866",
"Z. c #D8AE61",
"A. c #D4BC67",
"S. c #DEBD63",
"D. c #CEA170",
"F. c #D9B377",
"G. c #E2AF6B",
"H. c #E1B767",
"J. c #DBC668",
"K. c #DEC66E",
"L. c #D5C577",
"P. c #E1CA6C",
"I. c #E0CB71",
"U. c #E3D27B",
"Y. c #8B8585",
"T. c #8F8A8A",
"R. c #938D8D",
"E. c #979191",
"W. c #9C9696",
"Q. c #9F9898",
"!. c #A8A1A1",
"~. c #D8B388",
"^. c #DDB790",
"/. c #D4C685",
"(. c #DECE8A",
"). c #DED084",
"_. c #DED08A",
"`. c #DDC799",
"'. c #DFD597",
"]. c #E1D286",
"[. c #D5CBA3",
"{. c #DDD5A9",
"}. c #DFD7B1",
/* pixels */
"> z z z z z z z z z z z z z z z z z z z z z z z z z z z z z z z z z z z z z z z z z z > ",
"> z z z z z z z z v z z z z z z z z z z z z z z z z z z z z z z z v z z z z z v z z z > ",
"O O O $ $ O O O O > > > > > > > > > > O O O O $ $ O > > > > > > > > > O O O O O O O O O ",
"> > O 7 6 7 s s s O O 7 6 6 s s s O O 7 7 6 s s s ; O 6 6 6 s s s O O 7 6 6 s s s O > > ",
"> > O O 6 s s s O O O $ 7 s s s $ O O O 7 s s s $ O O O 6 s U s O O O O 7 s s s O O > > ",
"z z $ O s s s O O O O O s s s O O O O O s s i O O O O O s s s O O O $ O s s s O O O z z ",
"K K O s s s O $ 6 $ O s s s O O 7 $ O s s d +...6 ; O s s s $ O 6 $ O s s s O O 7 O K K ",
"z z O s s O O 7 6 7 s s s $ O 7 6 7 s s s ; c C e @.S s s O O 6 7 6 s s s $ O 7 6 $ z z ",
"K K ; s $ O O O 7 s s s O O O O 7 s i D 2 $ O O Z y.J u O O O O 6 s s s O O O O 7 O K K ",
"K K O O O O O O s s s O O O O $ i s s x N ; O O F e.F O O O o O i s s O O O O $ s $ K K ",
"K K > O 6 $ $ U s s $ O 7 $ O s U i O < 9 O $ s S #.h O 6 O O u i s $ O 6 $ O s s > K K ",
"K K > 7 6 6 i i s O O 7 6 7 s s s $ ; C Z C a a s h ; 6 5 6 u u i O O 6 6 7 s s s > K K ",
"K K > O 7 s i U O O O O 7 s s s $ $ h B @.I S S 2 O o $ 6 u u u o O O O 7 s s s O > K K ",
"K K > $ ( ( ( 7 O O ; O ( ( ( 6 O > B ..=.&.*.%...; O @ T Q T 6 O O O O ( ( ( 6 $ > K K ",
"K K > ( ( ( 7 7 s $ O ( ( ( 7 0 S B +.y.a.2.9.7.%.< x ] R T 6 6 i O O ( / ( 6 7 s > K K ",
"K K > ( ( O $ s s s ( ( ( $ $ S @.1.p.p.u.3.7.8.4.j.-.J T o o t t i / ( ( $ O s s > K K ",
"K K > ( O O O O U ( ( ( O O $ x ;.p.u.u.i.a.<.u.g.H.0.H , o o o t R / / $ O O O s > K K ",
"K K > 7 O O O $ ( ( ( 6 O O $ x >.u.=.%.a.i.a.a.g.S.w.e.o.; o o R R / 6 O O O O ( > K K ",
"K K > 7 s O $ ( ( ( 6 6 s : k &.>.p.1.w.b.p.V.z.f.S.w.t.r.N : d Y R 5 6 s O O ( ( > K K ",
"K K > s s s ( ( ( $ $ i U d ] &.6.a.1.n.G.d.F.F.c.v.5.t.y.o.F s U O o t i i ( ( ( > K K ",
"K K > $ s ( ( ( O O O O s ) ] =.X.<.5.D.~.g.m.I.A.s.s.s.p.y.A t X o o O u / / / O > K K ",
"K K > O ( ( ( 7 O O $ O ( ) &.O.u.5.n.P.P.B.h.C.~.d.b.c.<.<.Z @ X o o o R / / 6 O > K K ",
"K K > ) ( ( 7 7 s $ O ) ( ( G ;.a.5.N.].].P.m.F.~.s.M.b.,.>.2 @ 5 o o Y T R 6 6 s > K K ",
"K K > ( ( O O s s s T s U ; B :.<.5.N._.{.).U.'.^.8.N.v.<.a.B 4 * - q i T $ O i i > M K ",
"K K > ( $ O O O i R 8 # % $ b o.u.4.M.(.{.`.[.{.~.q.N.v.<.y.<.V # % $ 7 o o o O i > M M ",
"K K 1 7 O O O O T 7 $ & & & 1 X.i.3.5.M.G.x.^.'.K.Z.J.v.<.a.V 1 $ & & % o o o O R : M M ",
"K K > 7 s $ O U 7 # % & & & & ..i.3.$.v.H.C.`.(.I._.M.f.$.G 1 % & $ # & 7 $ o T R > m m ",
"K K > s s i ( p % $ 8 1 $ & % ..p.3.3.v.U.}.}.].U.`.l.r.$.1 & - - 8 a a w & r U Y ; m m ",
"K K > O s ( ( ( O & R w $ % # ..u.:.:.c.L.[.[./.J.A.w.,.%.8 w p a ! T. .w q u i o : v n ",
"K K > $ ( ( ( 7 O $ 8 p R R L p k 3 3 e L L ! ^ P P A 3 4 L  .W.Y.` _ a 8 q q @ X O v b ",
"K K > ( ( ( 7 7 i $ o a _ _ _ g w w w w w w s _ } { } { ' _  .R.T.k.L 7 7 7 @ @ 8 O v v ",
"K K > ( ( o $ U i u 8 p E W ! _ _ _ _ ^ ~ _ ~  .!.!.!.!.R.` [ ` ` E.) 7 -     - - O z b ",
"K K > ( O O O $ s Q R q & 1 Q ~ ~ ~ ~ ~ ~ ~ ~ _ ' ' ' ' ` _ E. .p d 8 -         6 o j b ",
"K K > 7 O O O O ( / Q - X # 8 8 y ~ ~ _ _ _ _ ! [ E.W.Q.k.L ) g 5 - = .         w O z b ",
"K K > 7 s O O ( ( Q 6 5 r o o - 7 a a a a a a p E  . .k.} 8 & - * * . + *   . r t O v b ",
"K K > i s s ( ( ( O O t t r s u 0 # # $ $ # # # $ # # 8 w # = = =     * = = 0 r p O b b ",
"K K > $ s ( ( ( O O O O u R U i X X     % 5 6 5         @ - - -         - 0 t i X O b m ",
"K K > $ ( ( ( 7 O O O O R R T = o X X . 0 0 0 .         7 5 7 .       X r t u * o ; m m ",
"K K > ( ( ( 0 6 i $ O / / Q 6 5 r o X t t q @ + * . . 0 8 0 @ + 5 X   r p s = = w > m M ",
"K K > ( ( $ O s s s ( ( / o O t t r U s s X X 6 5 5 w q r . . 6 6 7 s s U X O t t > M M ",
"K K > ( O O O O s ( ( ( O O O o t R T Y o o o X 0 i i t X X X o 0 s f U o o o o i > M M ",
"K K K K K K K K K K K K K K M M m m m b b v v v l v l v l l v v v v b b m m M M M M K K ",
"K K K K K K K K K K K K K K K M M M M m m m b b b b v b v b b b n n m m m m M M M K K K ",
"z z z z z z z z v z z z z j v j l l j j j j l j j j j j j j j j j j j j z j v j j z z z "
};
