/* XPM */
static char *b27e9903a59f43d0c7079423889b6cecnmV4Gw2UwOLQmeHZ[] = {
/* columns rows colors chars-per-pixel */
"44 44 180 2 ",
"   c #0C0906",
".  c #0E0B09",
"X  c #120E0A",
"o  c #16110C",
"O  c #1C160F",
"+  c #0D0E12",
"@  c #0F1115",
"#  c #141414",
"$  c #181714",
"%  c #161916",
"&  c #1A1A17",
"*  c #14161A",
"=  c #17191D",
"-  c #1A1B1C",
";  c #22170D",
":  c #251A0D",
">  c #2A1E0E",
",  c #241A14",
"<  c #291A11",
"1  c #3F2113",
"2  c #171920",
"3  c #1C1F26",
"4  c #1F2026",
"5  c #222325",
"6  c #2B2426",
"7  c #222429",
"8  c #26282E",
"9  c #2B2B2C",
"0  c #342426",
"q  c #3C2F2A",
"w  c #272930",
"e  c #2B2D34",
"r  c #2D3037",
"t  c #2F323A",
"y  c #343334",
"u  c #3A3534",
"i  c #31343D",
"p  c #3C363A",
"a  c #3C3A3A",
"s  c #451D0F",
"d  c #432B0F",
"f  c #4D2211",
"g  c #472F12",
"h  c #492F10",
"j  c #4A2719",
"k  c #552514",
"l  c #552C1A",
"z  c #4C3214",
"x  c #513615",
"c  c #553916",
"v  c #593B17",
"b  c #59301C",
"n  c #5D3E18",
"m  c #622915",
"M  c #632D1A",
"N  c #6A331E",
"B  c #76351A",
"V  c #462622",
"C  c #483637",
"Z  c #4E3937",
"A  c #413F3F",
"S  c #763221",
"D  c #7B3D2E",
"F  c #663B34",
"G  c #604019",
"H  c #76412E",
"J  c #7B4838",
"K  c #6A5734",
"L  c #373A42",
"P  c #3A3D46",
"I  c #3B3F48",
"U  c #3E414B",
"Y  c #484345",
"T  c #41444E",
"R  c #4C4B4B",
"E  c #514F4F",
"W  c #5A494C",
"Q  c #434651",
"!  c #464A55",
"~  c #4B4A53",
"^  c #504A51",
"/  c #545252",
"(  c #595656",
")  c #585659",
"_  c #694947",
"`  c #664A49",
"'  c #704A42",
"]  c #625F5F",
"[  c #756C44",
"{  c #6A6650",
"}  c #76715D",
"|  c #666262",
" . c #6D6969",
".. c #757171",
"X. c #7C7878",
"o. c #883719",
"O. c #973516",
"+. c #A73D1A",
"@. c #BA3F19",
"#. c #833E25",
"$. c #8B3922",
"%. c #843D2C",
"&. c #A7441F",
"*. c #BC481E",
"=. c #844529",
"-. c #9B4324",
";. c #844635",
":. c #A84929",
">. c #B34C24",
",. c #BB4C23",
"<. c #B64829",
"1. c #A6582B",
"2. c #B75327",
"3. c #BC5B2C",
"4. c #A24932",
"5. c #BD5F35",
"6. c #BF6632",
"7. c #C4451C",
"8. c #C8461D",
"9. c #CF4B1F",
"0. c #D8471C",
"q. c #D3491C",
"w. c #DD491C",
"e. c #D6501E",
"r. c #E3521F",
"t. c #C34A21",
"y. c #CD4D20",
"u. c #D44E20",
"i. c #C35426",
"p. c #D75126",
"a. c #CE652E",
"s. c #C9653A",
"d. c #C37237",
"f. c #C5753A",
"g. c #C77E3D",
"h. c #C97D3E",
"j. c #DD7D39",
"k. c #E37A39",
"l. c #8A7048",
"z. c #AD7743",
"x. c #837D7D",
"c. c #C37852",
"v. c #DA7950",
"b. c #E37B50",
"n. c #B5844C",
"m. c #CB8847",
"M. c #D78842",
"N. c #D29A52",
"B. c #E2894C",
"V. c #E2934B",
"C. c #D5A859",
"Z. c #D7B45E",
"A. c #DAB65E",
"S. c #E1A650",
"D. c #DE8C63",
"F. c #CD9067",
"G. c #DE9D76",
"H. c #D0B561",
"J. c #DAB961",
"K. c #CDA074",
"L. c #E0A16B",
"P. c #DDC36C",
"I. c #DCC378",
"U. c #E0C773",
"Y. c #E1CC73",
"T. c #E2D375",
"R. c #878181",
"E. c #938E8E",
"W. c #979191",
"Q. c #9D9797",
"!. c #A09A9A",
"~. c #ACA5A5",
"^. c #D6B991",
"/. c #DECF8A",
"(. c #DBC69D",
"). c #DFD291",
"_. c #DDD29E",
"`. c #DDD2A3",
"'. c #DCD2AA",
"]. c #DED7B2",
/* pixels */
"> h h h h h h h h h h h h h h h h h h h h h h h h h h z h h h h h h h h h h h h h h h > ",
"> h h h h h h h h h h h h h h h h h h h h h h h h h h h h h h h h h h h h h d z h h h > ",
"O O O $ O O O O O > > > > > > > > > > O $ O O O O O > > > > > > > > > $ O O O O O O O O ",
"> > O 4 4 3 i i i O $ 3 5 3 i i i ; $ 3 3 3 i i i O O 3 3 3 i i i O O 4 4 3 i i i O > > ",
"> > O O 3 i i i O O O O 3 i i i O O O ; 3 i i i O O O O 3 i i i O O O O 4 i t t O O > > ",
"h z O O i i i $ O ; O O i i i O O O O O i i i O O O O O i i i O O O O O L i i O O O h h ",
"G G O i i i O O 3 $ O i i i O O 3 $ O i i i $ O 4 $ O i i i O O 3 O $ i t t O O 4 O G G ",
"h h O i i O O 3 4 3 i i i O $ 4 3 3 i i i O ; 5 3 4 i i i ; $ 3 4 4 i i i $ O 4 4 $ h h ",
"G G O i O O O O 4 i i i O O O O 3 i t p o.k O O 3 %.D i O O O O 4 i i i $ O O O 4 O G G ",
"G G O O O O O O i i i O O O O O i i i < o.f O O i %.D ; O O O O i i i O O O $ O i O G G ",
"G G > O 3 $ O i i i O $ 4 $ O i i i $ ; 0 : $ i i i ; $ 3 O O i t i O % 4 O O L i > G G ",
"G G > 3 4 3 i i i O O 3 3 3 i i i $ o 6 @.N t t i ; ; 3 3 3 i t t O O 4 4 4 t t i > G G ",
"G G > $ 4 i i i O O O O 4 i i i ; O O < S H Z L O O ; $ 3 r t t O O O O 4 i t t O > G G ",
"G G > O ! ! ! 3 O O O $ ! ~ ! 4 $ ; < f W ' J V s ; O $ T Q Q 3 O O O O ! ! ! 4 O > G G ",
"G G > ! ~ ! 4 3 i O O ! ! ! 4 3 i < f 4.' J =.H D 1 < Y T T 3 3 t O O ! ! ! 4 4 i > G G ",
"G G > ~ ! O $ i i i ~ ! ! $ O i C F :.0.q.*.1.l.H D ;.;.Y o $ r t t ! ! ! % O i i > G G ",
"G G > ! O O O O i ! ! ~ O O O O C 4.u.r.V.f.2.1.7.m.n.%.$ o O O t Q Q ! $ O O $ i > G G ",
"G G > 4 O O O O ! ! ! 3 O O & ; ` <.0.<.Z.M.*.*.w.g.z.o.f ; o o T Q Q 3 O O O O ! > G G ",
"G G > 4 i O $ ! ! ! 4 3 i O $ ~ ` <.8.=.H.k.p.s.e.-.#.>.$.s ; P U T 3 3 i O O ! ! > G G ",
"G G > i i i ! ! ! & O i i i ~ ^ _ +.0.3.Z.k.v.^.6.o.#.>.$.$.F L I o o i i i Q ~ ! > G G ",
"G G > $ i ! ! ! O O O O i ! ! R m +.,.2.s.e.b.(.5.+.>.*.8.0.%.i o o o O t ! Q ! O > G G ",
"G G > O ! ! ! 4 O O O O ! ! ! 6 O.>.>.2.g.M.B.D.F.s.a.m.u.y.#.* o o o O T Q ! 3 O > G G ",
"G G > ! ! ! 3 4 i O O ~ ! ! 4 0 <.7.2.f.P.T.S.k.(.v.j.A.3.>.N @ 5 X o I U Q 3 3 i > G G ",
"G G > ! ! O $ i i i ! Q Q O & C :.*.d.P._./.P.P._.c.h.Z.3.,.B 4 3 5 i L I O O r i > N G ",
"G G > ! O O O O t ! U 5 # # < M t.t.f.Y.`.`._._.'.c.g.A.3.9.7.B - & - 5 O o O O t > n n ",
"G G > 4 O O O O ! U 9 % % % - l 8.q.3.m.I.L.G.]./.C.C.A.3.9.&.b & % & % # o O o Q > n n ",
"G G > 4 i $ O ~ U 7 % & & & & , *.q.>.3.J.V.D.`.U.T.I.N.i.-.l % % % % = & # o T U > n n ",
"G G > i i i ! ! 8 # # & & & & > *.9.<.3.J.).'.`.U.).K.i.w.b % & - % 4 4 9 - 8 P U : c n ",
"G G > O i ! ! ! O # - A 5 # @ , @.u.,.i.Z.).'.`.Y.Y.C.,.,.j % 9 w U ..x.y 8 t t o ; c v ",
"G G > O ! ! ! 4 O O & 9 y u u u k m l b K { { } [ [ K Z l q ! n.R.! ) ) 9 8 e * o O x c ",
"G G > ~ ! ! 3 4 i O O % A ( / E e 5 7 7 5 5 7 p / ) ) ) ! U ..!.Q.n.R 5 4 4 @ # 4 ; z x ",
"G G > ! ! O $ i t r U - a R R E E E E E E E R ] !.~.~.~.~...! ) / W. .5 4 . . & 5 O z x ",
"G G > ! O O O O i ! T i - - 9 E E E E E E / E E ] ] ] ] ] / X.E.a A y =       . 4 O z x ",
"G G > 4 O O O O ! ! T 3 O X # 9 9 A / / / / E E E X.W.W.E./ R / 5 - = .       . 9 O h x ",
"G G > 3 i O $ ! ! ! 3 3 e o o & % 9 a a a a a a a | x.x.R.A & 4 * = . + *     w r ; h c ",
"G G > t i i ! ! Q O o r e e i t 9 . % % % @ % + % % % % 9 % = = =     @ * = 8 e i ; x v ",
"G G > O i ! ! ! O O O O r U L i o . . . % 3 3 %         @ = % =         = 8 e t X ; x v ",
"G G > & ! ! ! 4 O O O O Q U U 2 X . X . 7 5 5 +         - 4 4 +         8 e t = o : v n ",
"G G > ! ! ! 4 3 i O $ Q Q U 3 = 8 o X r w w % + %     4 4 4 @ @ 2 . . e y i = 2 e : v n ",
"G G > ! ~ $ O i i i ! ! ! O O e e e L i t . X - 4 = 8 8 8 . . - 3 4 r i L X o e r : n G ",
"G G > ! O O O O i ! ! ! O O O O r I P L o o o X 5 r r r X X X X 7 i L a o o o O y > n G ",
"G G G G G G G G G N G G G G n v n v v c x z z z g g h h g h h z z z z x c v v n n n G n ",
"G G G G G G G G G G G G G G G G n v v v v c c x x x c x x x x x x c c v n v n n n n G G ",
"h h h h h h h h g g h h h h g d h h h h d d d d d 1 1 h 1 1 1 d d d d h d h d z h h h h "
};
