/* XPM */
static char *_ef7795df5d248ffec822ef8f7ebb690R2nvx3dQoTalPlCJ[] = {
/* columns rows colors chars-per-pixel */
"44 44 189 2 ",
"   c #0B0906",
".  c #0D0B0A",
"X  c #120E0A",
"o  c #16110C",
"O  c #1C160F",
"+  c #0D0E12",
"@  c #0F1115",
"#  c #141414",
"$  c #1A1612",
"%  c #161917",
"&  c #1A1A16",
"*  c #15161B",
"=  c #17191C",
"-  c #1A1B1D",
";  c #20150E",
":  c #2C170D",
">  c #241A0D",
",  c #2A1E0E",
"<  c #241912",
"1  c #2B1B13",
"2  c #201F1E",
"3  c #321C10",
"4  c #3A1D11",
"5  c #20201F",
"6  c #3E2115",
"7  c #3F2A10",
"8  c #3B2318",
"9  c #171A20",
"0  c #1C1F26",
"q  c #281F20",
"w  c #1F2024",
"e  c #242425",
"r  c #282427",
"t  c #23242A",
"y  c #26282D",
"u  c #2B2B2C",
"i  c #342A29",
"p  c #272A31",
"a  c #2A2D34",
"s  c #2E3037",
"d  c #2E3139",
"f  c #343333",
"g  c #383737",
"h  c #31343D",
"j  c #3A353A",
"k  c #35383F",
"l  c #3C3B3B",
"z  c #461E0F",
"x  c #442B0F",
"c  c #452116",
"v  c #4B2417",
"b  c #452D11",
"n  c #492F10",
"m  c #542412",
"M  c #5A2614",
"N  c #582A18",
"B  c #4B3214",
"V  c #513615",
"C  c #553916",
"Z  c #593B17",
"A  c #5D3E18",
"S  c #6C2D17",
"D  c #69341B",
"F  c #7B3117",
"G  c #402624",
"H  c #582C23",
"J  c #4A3928",
"K  c #463636",
"L  c #583935",
"P  c #604019",
"I  c #4E4634",
"U  c #794C3B",
"Y  c #363942",
"T  c #383B44",
"R  c #393C45",
"E  c #3E414B",
"W  c #434242",
"Q  c #4C4746",
"!  c #41444E",
"~  c #4E4C4C",
"^  c #514F4F",
"/  c #5D4D4E",
"(  c #585547",
")  c #434651",
"_  c #464A55",
"`  c #524A50",
"'  c #535151",
"]  c #595656",
"[  c #5E5B5B",
"{  c #63494A",
"}  c #704944",
"|  c #625F5F",
" . c #646262",
".. c #686464",
"X. c #6D6A6C",
"o. c #7B7676",
"O. c #7D7979",
"+. c #833619",
"@. c #85361A",
"#. c #973B1D",
"$. c #AA3C1E",
"%. c #B13E1A",
"&. c #843922",
"*. c #933E23",
"=. c #B7421C",
"-. c #9C4321",
";. c #8C4737",
":. c #924834",
">. c #835A3D",
",. c #A24521",
"<. c #AD4922",
"1. c #A94628",
"2. c #B54B23",
"3. c #B94D23",
"4. c #BC4A29",
"5. c #A9502F",
"6. c #B85127",
"7. c #BB582A",
"8. c #9F6138",
"9. c #BE612F",
"0. c #BB6431",
"q. c #AB703D",
"w. c #C9471D",
"e. c #D1451A",
"r. c #D64C1F",
"t. c #DC4A1C",
"y. c #E2481A",
"u. c #C54C22",
"i. c #CE4B21",
"p. c #C65124",
"a. c #D85B27",
"s. c #C85E31",
"d. c #E35D26",
"f. c #C4622F",
"g. c #C16531",
"h. c #C36D36",
"j. c #D06E31",
"k. c #C67339",
"l. c #DD7C3B",
"z. c #E0783C",
"x. c #886A45",
"c. c #837E7E",
"v. c #C47B41",
"b. c #C1754D",
"n. c #CF7954",
"m. c #E27F4D",
"M. c #CD823F",
"N. c #BA8C4A",
"B. c #B09C5F",
"V. c #CE8945",
"C. c #CA8B4B",
"Z. c #CA8C4F",
"A. c #DE8B43",
"S. c #DA964A",
"D. c #C89A52",
"F. c #E0895D",
"G. c #D5A95C",
"H. c #DCAC59",
"J. c #D8B05C",
"K. c #E1A551",
"L. c #CC9B6A",
"P. c #D5BA6E",
"I. c #D3A678",
"U. c #DEC366",
"Y. c #DEC772",
"T. c #DFCD7E",
"R. c #E1C666",
"E. c #E0CC6C",
"W. c #E0CD74",
"Q. c #E2D47E",
"!. c #868181",
"~. c #8F8989",
"^. c #918B8B",
"/. c #9C9696",
"(. c #A49D9D",
"). c #A8A1A1",
"_. c #DECF85",
"`. c #DAC788",
"'. c #DECF8D",
"]. c #DFD18F",
"[. c #D3C891",
"{. c #DECF90",
"}. c #DDD19A",
"|. c #E0D080",
" X c #D2CAA4",
".X c #DCD2A4",
"XX c #DED5AB",
"oX c #DFD6B1",
"OX c #E1D9A9",
/* pixels */
", n n n n n n n n n n n n n n n n n n n n n n n n n n n n n n n n n n n n n n n n n n , ",
", n n n n n n n n B n n n n n n n n n n n n n n n n n n n n n n n B n n n n n B n n n , ",
"O O O $ O O O $ O , , , , , , , , , , O $ O O O O O , , , , , , , , , $ O O O O O O O O ",
", , O w w 0 h h h O $ w 0 w h h h $ $ w 0 0 h h h O O 0 0 0 h h h O O w 0 0 h h h O , , ",
", , O O 0 h h h O O O O w h h h O O O O w h h h O O O O w Y d d O $ O O w h h h O O , , ",
"n n $ O h h h $ O $ $ ; h h h O O O O O h h h O O $ O O Y d Y $ O $ O O d h h O O O n n ",
"P P O h h h $ O 0 $ O h h h O O 0 $ $ h h h O F w.4 $ h h h O $ 0 $ $ h Y d O O w O P P ",
"n n O h h O $ w 0 w h h h $ $ 0 w 0 h h h < O H *.q h j d O O 0 w 0 h h h $ $ w 0 $ n n ",
"P P ; h O O O $ e h h h O O O ; 0 h h h $ > O 6 H K h j o O O O w Y Y d $ $ O O w O P P ",
"P P O O O $ O O h h h O $ O O O h h h O ; $ O $ h h j : $ O O O d d d $ O O O $ h O P P ",
"P P , O w $ $ h h h $ O 0 $ O Y h h $ $ w < $ d h h m M q o O d d k O $ w $ $ h h , P P ",
"P P 5 w 0 0 h h h O O 0 0 0 h h h $ $ q r G L K h o 4 G 0 0 s h d O O w w 0 h h h , P P ",
"P P , O 0 h h h O O O O w h h h O O O 1 G L >.U 4 3 ; $ 0 d d h O o O O w Y d Y $ , P P ",
"P P , O _ _ _ w O O O O _ _ _ 0 O O ; m ;./ B.N.F S 4 ; E ! ! 0 O O O O E _ E w O , P P ",
"P P , _ _ _ w 0 h $ O _ _ _ w 0 Y 1 M 5.i.4.9.q.x.D F :.U Q 9 0 d O # _ _ _ w w h , P P ",
"P P , ~ _ O $ h h h _ _ _ $ $ h h K 1.t.y.y.u.5.8.5.v.b.*.: o a s d _ _ _ = O h h , P P ",
"P P 1 _ O O O O Y _ _ _ O $ O $ j { 4.r.e.t.w.7.f.y.A.D.@.z o o s ) ) ) $ O ; $ h , P P ",
"P P , w O O O $ _ _ _ w O O O $ _ { :.&.#.r.y.l.J.d.i.6.<.@.z o R R ! 0 O O $ $ _ , P P ",
"P P , 0 h O O _ _ _ w w h O $ _ ` } $.%.0.S.d.m.`.s.=.2.3.<.@.L l R - 0 s $ O ) _ , P P ",
"P P , h h h _ _ _ $ O h h h _ _ ` M =.u.7.Z.A.H.`.C.Z.b.3.u.i.*.j o o a s d ) ) _ , P P ",
"P P , O h _ _ _ $ O $ O d _ _ _ 3 M ,.3.3.g.H.E.R.W.`.I.s.i.y.<.; X o o d _ _ E O , P P ",
"P P , O _ _ _ t O O O O _ _ _ w 4 +.<.2.g.J.U.E.W.}.F.z.G.g.*.c X X o o R E E w O , P P ",
"P P , _ _ _ 0 w h $ O _ _ _ w 9 q v *.k.G.'.W.R.W..Xn.j.U.h.S @ % X + d R E 9 w h , A A ",
"P P , _ _ O $ h h h _ R Y $ $ - @ & *.S.|.XX{.T.`..XL.V.S.g.@.c & = t y a o O d h , A D ",
"P P , _ $ O O O h _ E t $ # $ % & 8 -.V.Y.}..X.XXX.X_.K.d.p.i.%.3 # # # # O o o s , A A ",
"P P 1 w O O O $ _ E e % % % % % v =.3.7.M.Y.Q.]..XQ.W.R.K.g.p.,.5 & & & & # o O E > Z Z ",
"P P , w h O O _ T t # $ $ & < % N y.p.=.0.U._.}..X{.{.P.C.a.*.N 5 & % $ o - 2 t Y > C Z ",
"P P , h h k _ _ h $ # 5 5 & % % N t.p.2.h.U..XoXXXoXOXI.6.r.F * & - 2 e l g e 5 s ; V C ",
"P P , $ h _ _ _ O O # l h * % % N e.=.<.0.J.[. X X X`.D.6.2.D 9 f f l [ /.| y a o ; n V ",
"P P , O _ _ _ w O O $ - a I W W K c 7 8 7 I l I ( ( ( I J 4 i ' ^./.o.^ ' g t @ X o n B ",
"P P , _ _ _ w w h O O w u ' ' ' W a u a u u u u E  .X.X.X. .] [ !.~.~.o.g w . @ - O x B ",
"P P > _ _ $ $ Y d h E u u W W ~ ' ' ^ ' ^ ' ^ ~ [ /.).).).).O.' | ~ X.~.g o   = - X 7 n ",
"P P , _ $ O O O h _ ! E $ & - g ^ ^ ^ ' ^ ^ ~ ^ ' ] [ [ [ [ ' ..(.' f f +       = o 7 b ",
"P P , w O O O O _ _ _ 0 o o o - r u Q ' ' ' ' ' ' ^ O./././...l ] s - #         t o x B ",
"P P , 0 h $ $ _ _ ! 0 9 a o o y - - u g g g g g g g [ O.o.c.~ q w = . . #     t y o n n ",
"P P , h h h _ _ _ O O d s a T h a X # # # # # # # # # # % r t - =     @ * * w y a O n V ",
"P P , O h _ _ _ O O o O d E R Y X X X . = e 0 9         # = & 9         = t y a X O B V ",
"P P , $ _ _ _ w $ O O O _ ! E 9 o o X X y t t +         0 9 0 +       X y p a * X > C C ",
"P P , _ _ _ w w h O O _ ) ) 0 9 a o o d a a @ @ - X   t t e + @ = . . y a a * * y > C Z ",
"P P , _ _ $ $ h h h _ _ _ O O d a a T Y h X X e 0 9 p y y . X 9 0 0 a s h o o a a > Z Z ",
"P P , _ O O O O h _ _ _ O O O O s E E R O o o o t d s s X X X X e h h k o o O o s , Z P ",
"P P P P P P P P P P P P P P A A A Z Z C C V B B B B B B b n n B B B V B V C C Z Z A A A ",
"P P P P P P P P P P P P P P P A A A A Z C Z C C V V B V B C V V V V C Z Z Z Z A P P A P ",
"n n n n n B n n n n n n n x B n B x n x x x x x x x x 7 x b x x x x x x x n B x n n n n "
};
